<?xml version="1.0" encoding="UTF-8"?>
<svg width="980px" height="605px" viewBox="0 0 980 605" version="1.1" xmlns="http://www.w3.org/2000/svg" xmlns:xlink="http://www.w3.org/1999/xlink">
    <!-- Generator: Sketch 49.1 (51147) - http://www.bohemiancoding.com/sketch -->
    <title>banner</title>
    <desc>Created with Sketch.</desc>
    <defs></defs>
    <g id="Page-1" stroke="none" stroke-width="1" fill="none" fill-rule="evenodd">
        <g id="logo" transform="translate(363.000000, 156.000000)">
            <path d="M127.5,4.03991332 L3.5,75.5222663 L3.5,218.477734 L127.5,289.960087 L251.5,218.477734 L251.5,75.5222663 L127.5,4.03991332 Z" id="Polygon" stroke="#343334" stroke-width="7"></path>
            <path d="M133.928571,81.2244898 C133.928571,73.9510204 127.982143,68 120.714286,68 C113.446429,68 107.5,73.9510204 107.5,81.2244898 L107.5,87.8367347 L133.928571,87.8367347 L133.928571,81.2244898 Z" id="Shape" fill="#343334" fill-rule="nonzero"></path>
            <path d="M180.191786,150.785306 L180.211607,150.752245 L151.754643,134.267918 C149.5875,132.714041 146.957857,131.775102 144.096964,131.775102 C139.974107,131.775102 136.346786,133.705878 133.935179,136.668163 L133.935179,122.359265 C133.6775,122.127837 133.380179,121.949306 133.135714,121.698041 L120.714286,109.280245 L108.299464,121.704653 C108.048393,121.955918 107.757679,122.127837 107.5,122.365878 L107.5,170.489796 L102.82875,165.814939 C93.9421429,156.921469 80.305,155.704816 70.1035714,162.125306 L70.1167857,162.138531 C69.8128571,162.317061 69.52875,162.54849 69.2644643,162.81298 C67.3880357,164.690857 67.3880357,167.73249 69.2644643,169.610367 L114.53,214.910857 L114.536607,214.851347 C122.200893,222.171102 132.5675,226.693878 144.011071,226.693878 C167.638214,226.693878 186.785714,207.531592 186.785714,183.886204 L186.785714,162.138531 C186.785714,157.278531 184.116429,153.073143 180.191786,150.785306 Z" id="Shape" fill="#343334" fill-rule="nonzero"></path>
            <path d="M94.2857143,120.897959 C97.9328571,120.897959 101.236429,119.416816 103.628214,117.023184 L120.714286,99.9239184 L137.800357,117.023184 C140.192143,119.416816 143.495714,120.897959 147.142857,120.897959 C154.44375,120.897959 160.357143,114.98 160.357143,107.673469 C160.357143,100.366939 154.44375,94.4489796 147.142857,94.4489796 L94.2857143,94.4489796 C86.9848214,94.4489796 81.0714286,100.366939 81.0714286,107.673469 C81.0714286,114.98 86.9848214,120.897959 94.2857143,120.897959 Z M147.142857,101.061224 C150.783393,101.061224 153.75,104.030122 153.75,107.673469 C153.75,111.316816 150.783393,114.285714 147.142857,114.285714 C145.37875,114.285714 143.720357,113.598041 142.471607,112.348327 L131.193214,101.061224 L147.142857,101.061224 Z M94.2857143,101.061224 L110.235357,101.061224 L98.9569643,112.348327 C97.7082143,113.598041 96.0498214,114.285714 94.2857143,114.285714 C90.6451786,114.285714 87.6785714,111.316816 87.6785714,107.673469 C87.6785714,104.030122 90.6451786,101.061224 94.2857143,101.061224 Z" id="Shape" fill="#343334" fill-rule="nonzero"></path>
        </g>
    </g>
</svg>