<?xml version="1.0" encoding="UTF-8"?>
<svg width="980px" height="400px" viewBox="0 0 980 400" version="1.1" xmlns="http://www.w3.org/2000/svg" xmlns:xlink="http://www.w3.org/1999/xlink">
    <!-- Generator: Sketch 47.1 (45422) - http://www.bohemiancoding.com/sketch -->
    <title>banner</title>
    <desc>Created with Sketch.</desc>
    <defs></defs>
    <g id="Page-1" stroke="none" stroke-width="1" fill="none" fill-rule="evenodd">
        <g id="github-banner" transform="translate(-16.000000, -21.000000)">
            <path d="M506.299363,78.0414519 L382.5,149.517047 L382.5,292.468239 L506.299363,363.943834 L630.098726,292.468239 L630.098726,149.517047 L506.299363,78.0414519 Z" id="Polygon" stroke="#343334" stroke-width="7"></path>
            <g id="Group" transform="translate(446.000000, 142.000000)" fill-rule="nonzero" fill="#343334">
                <path d="M66.9285714,13.2244898 C66.9285714,5.95102041 60.9821429,0 53.7142857,0 C46.4464286,0 40.5,5.95102041 40.5,13.2244898 L40.5,19.8367347 L66.9285714,19.8367347 L66.9285714,13.2244898 Z" id="Shape"></path>
                <path d="M113.191786,82.7853061 L113.211607,82.7522449 L84.7546429,66.2679184 C82.5875,64.7140408 79.9578571,63.775102 77.0969643,63.775102 C72.9741071,63.775102 69.3467857,65.7058776 66.9351786,68.6681633 L66.9351786,54.3592653 C66.6775,54.1278367 66.3801786,53.9493061 66.1357143,53.6980408 L53.7142857,41.2802449 L41.2994643,53.7046531 C41.0483929,53.9559184 40.7576786,54.1278367 40.5,54.3658776 L40.5,102.489796 L35.82875,97.8149388 C26.9421429,88.9214694 13.305,87.7048163 3.10357143,94.1253061 L3.11678571,94.1385306 C2.81285714,94.3170612 2.52875,94.5484898 2.26446429,94.8129796 C0.388035714,96.6908571 0.388035714,99.7324898 2.26446429,101.610367 L47.53,146.910857 L47.5366071,146.851347 C55.2008929,154.171102 65.5675,158.693878 77.0110714,158.693878 C100.638214,158.693878 119.785714,139.531592 119.785714,115.886204 L119.785714,94.1385306 C119.785714,89.2785306 117.116429,85.0731429 113.191786,82.7853061 Z" id="Shape"></path>
                <path d="M27.2857143,52.8979592 C30.9328571,52.8979592 34.2364286,51.4168163 36.6282143,49.0231837 L53.7142857,31.9239184 L70.8003571,49.0231837 C73.1921429,51.4168163 76.4957143,52.8979592 80.1428571,52.8979592 C87.44375,52.8979592 93.3571429,46.98 93.3571429,39.6734694 C93.3571429,32.3669388 87.44375,26.4489796 80.1428571,26.4489796 L27.2857143,26.4489796 C19.9848214,26.4489796 14.0714286,32.3669388 14.0714286,39.6734694 C14.0714286,46.98 19.9848214,52.8979592 27.2857143,52.8979592 Z M80.1428571,33.0612245 C83.7833929,33.0612245 86.75,36.0301224 86.75,39.6734694 C86.75,43.3168163 83.7833929,46.2857143 80.1428571,46.2857143 C78.37875,46.2857143 76.7203571,45.5980408 75.4716071,44.3483265 L64.1932143,33.0612245 L80.1428571,33.0612245 Z M27.2857143,33.0612245 L43.2353571,33.0612245 L31.9569643,44.3483265 C30.7082143,45.5980408 29.0498214,46.2857143 27.2857143,46.2857143 C23.6451786,46.2857143 20.6785714,43.3168163 20.6785714,39.6734694 C20.6785714,36.0301224 23.6451786,33.0612245 27.2857143,33.0612245 Z" id="Shape"></path>
            </g>
        </g>
    </g>
</svg>